# xmcd
#
# Track frame offsets:
#	150
#	22427
#	62527
#
# Disc length: 1129 seconds
#
# Revision: 1
# Processed by: cddbd v1.5PL3 Copyright (c) Steve Scherf et al.
# Submitted via: CDex 1.50Beta5
#
DISCID=24046703
DTITLE=木根尚登 - 永遠のスピード
DYEAR=1900
DGENRE=
TTITLE0=永遠のスピード
TTITLE1=Bless this Love (World dub mix)
TTITLE2=永遠のスピード (Original Backing Track)
EXTD=
EXTT0=
EXTT1=
EXTT2=
PLAYORDER=
